<svg aria-hidden="true" style="position:absolute;width:0;height:0;overflow:hidden" xmlns="http://www.w3.org/2000/svg"><defs><symbol id="icon-d-cube" viewBox="0 0 32 32"><path fill="#dc7000" style="fill:var(--color1, #dc7000)" d="m31.352 27.45-.662-2.469a.602.602 0 1 0-1.164.312l.29 1.081-4.228-2.412V13.939a.6.6 0 0 0-.302-.522L16.55 8.395V3.622l.779.779a.603.603 0 0 0 .852-.852l-1.808-1.808a.605.605 0 0 0-.852 0l-1.808 1.808a.603.603 0 0 0 .852.852l.779-.779v4.774l-8.677 5.022a.603.603 0 0 0-.301.521v9.926l-4.287 2.436.29-1.083a.603.603 0 0 0-1.164-.312l-.662 2.47a.608.608 0 0 0 .444.743l2.451.657a.602.602 0 1 0 .312-1.164l-1.046-.28 4.255-2.418 8.718 5.134c.187.11.418.111.607.003l2.21-1.274a.603.603 0 0 0-.602-1.044l-1.906 1.099-7.819-4.604 7.74-4.398 7.889 4.5-1.207.696a.603.603 0 0 0 .602 1.044l1.818-1.048 4.18 2.385-1.047.28a.603.603 0 0 0 .312 1.164l2.415-.647a.607.607 0 0 0 .48-.753zm-6.969-4.176-7.833-4.468V9.784l7.833 4.503v8.987zm-16.81-8.988 7.773-4.499v8.976L7.573 23.18v-8.894z"/><path fill="#dc7000" style="fill:var(--color1, #dc7000)" d="M20.527 27.472a.603.603 0 1 0 0-1.206.603.603 0 0 0 0 1.206z"/></symbol><symbol id="icon-desktop" viewBox="0 0 32 32"><path fill="#dc7000" style="fill:var(--color1, #dc7000)" d="M27.972 2.05H4.124A3.633 3.633 0 0 0 .495 5.679v20.738a3.633 3.633 0 0 0 3.629 3.629h23.848a3.633 3.633 0 0 0 3.629-3.629V5.679a3.633 3.633 0 0 0-3.629-3.629zm2.592 24.367a2.595 2.595 0 0 1-2.592 2.592H4.124a2.595 2.595 0 0 1-2.592-2.592V5.679a2.595 2.595 0 0 1 2.592-2.592h23.848a2.595 2.595 0 0 1 2.592 2.592v20.738z"/><path fill="#dc7000" style="fill:var(--color1, #dc7000)" d="M27.972 6.197H4.124c-.859 0-1.555.696-1.555 1.555v18.664c0 .859.696 1.555 1.555 1.555h23.848c.859 0 1.555-.696 1.555-1.555V7.752c0-.859-.696-1.555-1.555-1.555zM16.048 16.496l-5.646-3.04 5.646-3.04 5.646 3.04-5.646 3.04zm6.221-2.173v6.079l-5.703 3.072v-6.079l5.703-3.072zm-6.74 3.073v6.079l-5.703-3.072v-6.079l5.703 3.072zM3.605 7.753c0-.286.232-.518.518-.518h11.406v2.281L9.062 13l-.021.009a.517.517 0 0 0-.251.447v4.346l-5.184 2.592V7.753zM28.49 26.417a.518.518 0 0 1-.518.518H4.124a.518.518 0 0 1-.518-.518v-4.864l5.184-2.592v1.753c0 .191.105.366.273.456l6.74 3.629a.515.515 0 0 0 .491 0l6.74-3.629a.518.518 0 0 0 .273-.456v-1.753l5.184 2.592v4.864zm0-6.024-5.184-2.592v-4.346a.52.52 0 0 0-.253-.445l-.021-.009-6.466-3.486V7.234h11.406c.286 0 .518.232.518.518v12.641zM3.605 5.16a.518.518 0 1 0 0-1.036.518.518 0 0 0 0 1.036zM5.679 5.16a.518.518 0 1 0 0-1.036.518.518 0 0 0 0 1.036zM7.753 5.16a.518.518 0 1 0 0-1.036.518.518 0 0 0 0 1.036zM20.714 5.16h7.258a.518.518 0 0 0 0-1.036h-7.258a.518.518 0 0 0 0 1.036z"/></symbol><symbol id="icon-facebook" viewBox="0 0 32 32"><path d="M21.331 5.313h2.921V.225C23.748.156 22.015 0 19.996 0c-4.212 0-7.097 2.649-7.097 7.519V12H8.251v5.688h4.648V32h5.699V17.689h4.46l.708-5.688h-5.169V8.082c.001-1.644.444-2.769 2.735-2.769z"/></symbol><symbol id="icon-fire" viewBox="0 0 32 32"><path fill="#fff" style="fill:var(--color2, #fff)" d="M27.932 18.736c-.367-4.772-2.589-7.763-4.549-10.402C21.568 5.891 20 3.781 20 .669a.668.668 0 0 0-1.055-.542c-2.944 2.107-5.4 5.657-6.258 9.045-.596 2.359-.675 5.01-.686 6.761-2.719-.581-3.335-4.647-3.341-4.692a.67.67 0 0 0-.347-.495.663.663 0 0 0-.604-.011c-.143.069-3.499 1.775-3.695 8.585-.014.227-.014.454-.014.681C4 26.617 9.383 32 16 32a.082.082 0 0 0 .027 0h.008C22.635 31.981 28 26.605 28 20.001c0-.333-.068-1.264-.068-1.264zM16 30.666c-2.206 0-4-1.911-4-4.261 0-.08-.001-.161.005-.26.027-.991.215-1.667.421-2.117.387.831 1.078 1.594 2.201 1.594a.667.667 0 0 0 .667-.667c0-.949.02-2.044.256-3.032.21-.876.713-1.808 1.35-2.556.283.97.835 1.755 1.374 2.521.771 1.096 1.569 2.23 1.709 4.162.008.115.017.23.017.354 0 2.349-1.794 4.261-4 4.261z"/></symbol><symbol id="icon-instagram" viewBox="0 0 32 32"><path d="M23.34 0H8.664C3.888 0 .002 3.886.002 8.662v14.676C.002 28.114 3.888 32 8.664 32H23.34c4.776 0 8.662-3.886 8.662-8.662V8.662C32.002 3.886 28.116 0 23.34 0zm6.786 23.338a6.793 6.793 0 0 1-6.786 6.786H8.664a6.793 6.793 0 0 1-6.786-6.786V8.662a6.793 6.793 0 0 1 6.786-6.786H23.34a6.793 6.793 0 0 1 6.786 6.786v14.676z"/><path d="M16.002 7.25c-4.825 0-8.75 3.925-8.75 8.75s3.925 8.75 8.75 8.75 8.75-3.925 8.75-8.75-3.925-8.75-8.75-8.75zm0 15.623c-3.79 0-6.874-3.084-6.874-6.874s3.084-6.874 6.874-6.874c3.79 0 6.874 3.084 6.874 6.874s-3.083 6.874-6.874 6.874zM24.96 4.143c-1.426 0-2.585 1.16-2.585 2.585s1.16 2.586 2.585 2.586c1.426 0 2.586-1.16 2.586-2.586s-1.16-2.585-2.586-2.585zm0 3.295a.71.71 0 1 1 .001-1.42.71.71 0 0 1-.001 1.42z"/></symbol><symbol id="icon-linkedin" viewBox="0 0 32 32"><path d="M31.994 32v-.001h.008V20.263c0-5.741-1.236-10.164-7.948-10.164-3.227 0-5.392 1.771-6.276 3.449h-.093v-2.913h-6.364v21.364h6.627V21.42c0-2.785.528-5.479 3.977-5.479 3.399 0 3.449 3.179 3.449 5.657v10.401h6.62zM.53 10.636h6.635V32H.53V10.636zM3.845 0C1.724 0 .002 1.721.002 3.843s1.721 3.879 3.843 3.879c2.121 0 3.843-1.757 3.843-3.879A3.846 3.846 0 0 0 3.845 0z"/></symbol><symbol id="icon-pc" viewBox="0 0 32 32"><path fill="#dc7000" style="fill:var(--color1, #dc7000)" d="M3.091 12.902a.517.517 0 0 0 .367-.15l2.065-2.065a.52.52 0 0 0-.733-.733l-2.065 2.065a.516.516 0 0 0 .367.884zM3.091 16a.517.517 0 0 0 .367-.15l5.163-5.164a.52.52 0 0 0-.733-.733l-5.163 5.163a.516.516 0 0 0 .367.884z"/><path fill="#dc7000" style="fill:var(--color1, #dc7000)" d="M29.941.509H16.516c-.856 0-1.549.694-1.549 1.549v5.68H3.091A2.582 2.582 0 0 0 .509 10.32v13.425a2.582 2.582 0 0 0 2.582 2.582h5.68v2.065H7.222a1.549 1.549 0 1 0 0 3.098h22.719a1.55 1.55 0 0 0 1.549-1.549V2.058c0-.856-.694-1.549-1.549-1.549zM3.091 8.771H21.68c.856 0 1.549.694 1.549 1.549v12.392H1.542V10.32c0-.856.694-1.549 1.549-1.549zM1.542 23.745h21.687a1.55 1.55 0 0 1-1.549 1.549H3.091a1.549 1.549 0 0 1-1.549-1.549zm8.262 2.582h5.164v2.065H9.804v-2.065zm6.712 4.131H7.222a.516.516 0 1 1 0-1.032h10.327a.516.516 0 1 1 0 1.032h-1.033zm13.942-.517a.516.516 0 0 1-.516.516H19.006a1.546 1.546 0 0 0-1.456-2.065h-1.549v-2.065h5.68a2.582 2.582 0 0 0 2.582-2.582V10.32a2.582 2.582 0 0 0-2.582-2.582h-5.68v-5.68c0-.285.231-.516.516-.516h13.425c.285 0 .516.231.516.516v27.883z"/><path fill="#dc7000" style="fill:var(--color1, #dc7000)" d="M28.392 3.091H18.065c-.57 0-1.033.462-1.033 1.033v1.033c0 .57.462 1.033 1.033 1.033h10.327c.57 0 1.033-.462 1.033-1.033V4.124c0-.57-.462-1.033-1.033-1.033zM18.065 5.157V4.124h10.327v1.033H18.065zM27.36 10.836a1.549 1.549 0 1 0 0-3.098 1.549 1.549 0 0 0 0 3.098zm0-2.065a.516.516 0 1 1 0 1.032.516.516 0 0 1 0-1.032zM28.909 13.418a1.549 1.549 0 1 0-3.098 0 1.549 1.549 0 0 0 3.098 0zm-1.549.517a.516.516 0 1 1 0-1.032.516.516 0 0 1 0 1.032zM20.647 27.36a.516.516 0 0 0-.516.516v1.033a.516.516 0 1 0 1.032 0v-1.033a.516.516 0 0 0-.516-.516zM22.713 27.36a.516.516 0 0 0-.516.516v1.033a.516.516 0 1 0 1.032 0v-1.033a.516.516 0 0 0-.516-.516zM24.778 27.36a.516.516 0 0 0-.516.516v1.033a.516.516 0 1 0 1.032 0v-1.033a.516.516 0 0 0-.516-.516zM26.843 27.36a.516.516 0 0 0-.516.516v1.033a.516.516 0 1 0 1.032 0v-1.033a.516.516 0 0 0-.516-.516zM28.909 27.36a.516.516 0 0 0-.516.516v1.033a.516.516 0 1 0 1.032 0v-1.033a.516.516 0 0 0-.516-.516z"/></symbol><symbol id="icon-ps4" viewBox="0 0 32 32"><path fill="#dc7000" style="fill:var(--color1, #dc7000)" d="M6.725 11.393H.177v1.859h6.548a.93.93 0 0 1 0 1.86h-3.76a2.792 2.792 0 0 0-2.789 2.789v2.789h1.859v-2.789a.93.93 0 0 1 .93-.93h3.76c1.538 0 2.789-1.251 2.789-2.789s-1.251-2.789-2.789-2.789zM16.505 11.393a2.792 2.792 0 0 0-2.789 2.789V17.9a.93.93 0 0 1-.93.93H8.582v1.859h4.204a2.792 2.792 0 0 0 2.789-2.789v-3.718a.93.93 0 0 1 .93-.93h4.204v-1.859h-4.204zM30.046 16.97v-3.718a1.861 1.861 0 0 0-2.851-1.572l-5.887 3.718a1.85 1.85 0 0 0-.867 1.572c0 1.025.834 1.859 1.859 1.859h5.887v1.859h1.859v-1.859h1.859V16.97h-1.859zm-1.859 0h-5.886l5.886-3.718v3.718z"/></symbol><symbol id="icon-smartphone" viewBox="0 0 32 32"><path fill="#dc7000" style="fill:var(--color1, #dc7000)" d="M22.446.647H9.555a2.257 2.257 0 0 0-2.254 2.254v26.196a2.258 2.258 0 0 0 2.254 2.255h12.891a2.258 2.258 0 0 0 2.255-2.254V2.901A2.257 2.257 0 0 0 22.447.647zM8.324 4.741h15.353v19.447H8.324V4.741zm1.23-3.07h12.891c.679 0 1.231.552 1.231 1.231v.816H8.323v-.816c0-.679.552-1.231 1.231-1.231zm12.892 28.658H9.555a1.232 1.232 0 0 1-1.231-1.231v-3.887h15.353v3.887c0 .679-.552 1.231-1.231 1.231z"/><path fill="#dc7000" style="fill:var(--color1, #dc7000)" d="M16 25.723c-1.129 0-2.047.918-2.047 2.047s.918 2.047 2.047 2.047 2.047-.918 2.047-2.047-.918-2.047-2.047-2.047zm0 3.071a1.024 1.024 0 0 1 0-2.047 1.024 1.024 0 0 1 0 2.047zM13.953 3.206H16a.512.512 0 1 0 0-1.024h-2.047a.512.512 0 1 0 0 1.024zM17.535 3.206h.512a.512.512 0 1 0 0-1.024h-.512a.512.512 0 1 0 0 1.024zM29.619 2.986a.512.512 0 1 0-.724.724 4.91 4.91 0 0 1 0 6.935.512.512 0 1 0 .724.724 5.935 5.935 0 0 0 0-8.383z"/><path fill="#dc7000" style="fill:var(--color1, #dc7000)" d="M27.464 4.15a.512.512 0 1 0-.724.724c.633.633.981 1.476.981 2.374s-.349 1.74-.981 2.374a.512.512 0 1 0 .724.724c.826-.826 1.281-1.926 1.281-3.097s-.454-2.272-1.281-3.098zM3.105 3.709a.512.512 0 1 0-.724-.724 5.935 5.935 0 0 0 0 8.383.51.51 0 0 0 .724 0c.2-.2.2-.523 0-.724a4.91 4.91 0 0 1 0-6.935z"/><path fill="#dc7000" style="fill:var(--color1, #dc7000)" d="M5.26 4.009c-.2-.2-.524-.2-.724 0-.827.826-1.281 1.926-1.281 3.097s.455 2.271 1.281 3.098a.51.51 0 0 0 .724 0c.2-.2.2-.524 0-.724-.633-.633-.982-1.476-.982-2.374s.348-1.74.982-2.374c.2-.2.2-.524 0-.724z"/></symbol><symbol id="icon-twitter" viewBox="0 0 32 32"><path d="M32.002 6.078c-1.19.522-2.458.868-3.78 1.036a6.523 6.523 0 0 0 2.886-3.626 13.11 13.11 0 0 1-4.16 1.588A6.574 6.574 0 0 0 22.156 3C18.524 3 15.6 5.948 15.6 9.562c0 .52.044 1.02.152 1.496-5.454-.266-10.28-2.88-13.522-6.862a6.605 6.605 0 0 0-.898 3.316 6.57 6.57 0 0 0 2.914 5.452 6.479 6.479 0 0 1-2.964-.808v.072c0 3.188 2.274 5.836 5.256 6.446a6.548 6.548 0 0 1-1.72.216 5.8 5.8 0 0 1-1.242-.112c.85 2.598 3.262 4.508 6.13 4.57a13.182 13.182 0 0 1-8.134 2.798c-.538 0-1.054-.024-1.57-.09A18.469 18.469 0 0 0 10.066 29c12.072 0 18.672-10 18.672-18.668 0-.29-.01-.57-.024-.848a13.087 13.087 0 0 0 3.288-3.406z"/></symbol><symbol id="icon-vr-glasses" viewBox="0 0 32 32"><path fill="#dc7000" style="fill:var(--color1, #dc7000)" d="M18.567 23.905a8.33 8.33 0 0 1-5.237 0 .904.904 0 0 0-.571 1.715c1.03.343 2.111.514 3.191.514s2.161-.171 3.188-.514a.904.904 0 0 0-.572-1.714z"/><path fill="#dc7000" style="fill:var(--color1, #dc7000)" d="M26.477 6.531a5.739 5.739 0 0 0-5.688-4.936h-1.032v-.064a.904.904 0 0 0-.904-.904h-5.808a.904.904 0 0 0-.904.904v.064h-1.032c-2.909 0-5.282 2.147-5.685 4.936a3.814 3.814 0 0 0-2.963 3.712v7.744c0 2.477 2.017 3.486 2.934 3.704.414 5.575 5.095 9.784 10.554 9.784 5.567 0 10.143-4.32 10.554-9.784 2.375-.564 2.934-2.719 2.934-3.704v-7.744a3.812 3.812 0 0 0-2.96-3.711zm-6.72-3.128h1.032c2.557 0 3.613 2.091 3.833 3.033h-4.865V3.403zm-5.808-.968h4v4.001h-4V2.435zm-2.84.968h1.032v3.033H7.279c.586-2.455 2.811-3.033 3.829-3.033zm4.84 26.264c-4.46 0-8.273-3.379-8.73-7.872h4.457a4.235 4.235 0 0 0 2.977-1.233l.014-.014c.34-.332.806-.523 1.283-.523s.943.19 1.283.523l.014.014a4.235 4.235 0 0 0 2.977 1.233h4.456c-.454 4.416-4.196 7.872-8.73 7.872zm11.68-11.68c0 1.119-.912 2-2 2h-5.406a2.417 2.417 0 0 1-1.684-.689l-.015-.015c-.678-.677-1.616-1.066-2.575-1.066s-1.898.389-2.575 1.066l-.015.015a2.417 2.417 0 0 1-1.684.689H6.269c-1.085 0-2-.878-2-2v-7.744c0-1.103.897-2 2-2h19.36c1.103 0 2 .897 2 2v7.744z"/></symbol></defs></svg>